<svg width="500" height="500" version="1.1" xmlns="http://www.w3.org/2000/svg" desc="Created with imagetracer.js version 1.2.6" ><path fill="rgb(0,0,0)" stroke="rgb(0,0,0)" stroke-width="1" opacity="1" d="M 90.5 0 L 409.5 0 L 429.5 4 L 446.5 11 Q 463.1 19.9 475 33.5 Q 487 46.5 494 64.5 L 500 90.5 L 500 409.5 L 496 429.5 L 489 446.5 Q 479.7 463.7 465.5 476 Q 454.6 485.6 440.5 492 L 429.5 496 L 409.5 500 L 90.5 500 L 70.5 496 L 53.5 489 Q 36.9 480.1 25 466.5 Q 13 453.5 6 435.5 L 0 409.5 L 0 90.5 L 4 70.5 L 11 53.5 Q 20.3 36.3 34.5 24 Q 45.4 14.4 59.5 8 L 70.5 4 L 90.5 0 Z M 247 52 L 246 53 L 230 53 L 229 54 L 210 56 L 182 64 Q 146 78 120 101 Q 95 122 79 152 L 79 153 L 422 153 Q 412 134 398 119 Q 370 86 329 68 L 307 60 L 291 56 L 272 54 L 271 53 L 247 52 Z M 59 198 L 54 221 L 53 247 L 52 248 L 54 280 L 63 316 Q 77 354 102 382 Q 123 405 152 422 Q 171 433 194 440 L 215 445 L 228 446 L 228 198 L 59 198 Z M 272 198 L 272 446 L 286 445 L 303 441 L 329 432 Q 359 419 382 398 Q 412 370 431 331 L 438 313 L 444 291 L 446 273 L 447 272 L 447 253 L 448 252 L 447 248 L 447 229 L 443 206 L 441 201 L 441 198 L 272 198 Z " /><path fill="rgb(252,252,252)" stroke="rgb(252,252,252)" stroke-width="1" opacity="1" d="M 0 0 L 90 0.5 Q 67.1 2.6 51.5 12 Q 35.6 21.1 24 34.5 Q 12.6 47.1 6 64.5 L 2 78.5 L 0.5 90 L 0 0 Z " /><path fill="rgb(252,252,252)" stroke="rgb(252,252,252)" stroke-width="1" opacity="1" d="M 410.5 0 L 500 0 L 500 89.5 L 499 89.5 L 499 83.5 L 496 70.5 L 489 53.5 Q 479.7 36.3 465.5 24 Q 454.6 14.4 440.5 8 L 421.5 2 L 410.5 1 L 410.5 0 Z " /><path fill="rgb(252,252,252)" stroke="rgb(252,252,252)" stroke-width="1" opacity="1" d="M 0.5 410 L 4 429.5 L 11 446.5 Q 20.3 463.7 34.5 476 Q 45.4 485.6 59.5 492 L 78.5 498 L 90 499.5 L 0 500 L 0.5 410 Z " /><path fill="rgb(252,252,252)" stroke="rgb(252,252,252)" stroke-width="1" opacity="1" d="M 499.5 410 L 500 500 L 410 499.5 Q 432.9 497.4 448.5 488 Q 463.8 479.3 475 466.5 Q 487 453.5 494 435.5 L 498 421.5 L 499.5 410 Z " /><path fill="rgb(248,243,0)" stroke="rgb(248,243,0)" stroke-width="1" opacity="1" d="M 246.5 52 L 254 52.5 L 246.5 53 L 246.5 52 Z " /><path fill="rgb(248,243,0)" stroke="rgb(248,243,0)" stroke-width="1" opacity="1" d="M 229.5 53 L 233 53.5 L 229.5 54 L 229.5 53 Z " /><path fill="rgb(248,243,0)" stroke="rgb(248,243,0)" stroke-width="1" opacity="1" d="M 267.5 53 L 271 53.5 L 267.5 54 L 267.5 53 Z " /><path fill="rgb(248,243,0)" stroke="rgb(248,243,0)" stroke-width="1" opacity="1" d="M 221.5 54 L 225 54.5 L 221.5 55 L 221.5 54 Z " /><path fill="rgb(248,243,0)" stroke="rgb(248,243,0)" stroke-width="1" opacity="1" d="M 275.5 54 L 279 54.5 L 275.5 55 L 275.5 54 Z " /><path fill="rgb(248,243,0)" stroke="rgb(248,243,0)" stroke-width="1" opacity="1" d="M 215.5 55 L 218 55.5 L 215.5 56 L 215.5 55 Z " /><path fill="rgb(248,243,0)" stroke="rgb(248,243,0)" stroke-width="1" opacity="1" d="M 282.5 55 L 285 55.5 L 282.5 56 L 282.5 55 Z " /><path fill="rgb(248,243,0)" stroke="rgb(248,243,0)" stroke-width="1" opacity="1" d="M 209.5 56 L 212 56.5 L 209.5 57 L 209.5 56 Z " /><path fill="rgb(248,243,0)" stroke="rgb(248,243,0)" stroke-width="1" opacity="1" d="M 288.5 56 L 291 56.5 L 288.5 57 L 288.5 56 Z " /><path fill="rgb(248,243,0)" stroke="rgb(248,243,0)" stroke-width="1" opacity="1" d="M 193.5 60 L 196 60.5 L 193.5 61 L 193.5 60 Z " /><path fill="rgb(248,243,0)" stroke="rgb(248,243,0)" stroke-width="1" opacity="1" d="M 304.5 60 L 307 60.5 L 304.5 61 L 304.5 60 Z " /><path fill="rgb(248,243,0)" stroke="rgb(248,243,0)" stroke-width="1" opacity="1" d="M 171.5 68 L 173 68.5 L 169.5 70 L 169.5 69 L 171.5 68 Z " /><path fill="rgb(248,243,0)" stroke="rgb(248,243,0)" stroke-width="1" opacity="1" d="M 327.5 68 L 331 69.5 L 329.5 70 L 327.5 68 Z " /><path fill="rgb(248,243,0)" stroke="rgb(248,243,0)" stroke-width="1" opacity="1" d="M 155.5 76 L 154.5 78 L 150.5 80 L 151.5 78 L 155.5 76 Z " /><path fill="rgb(248,243,0)" stroke="rgb(248,243,0)" stroke-width="1" opacity="1" d="M 344.5 76 L 348 78.5 L 346.5 78 L 344.5 76 Z " /><path fill="rgb(248,243,0)" stroke="rgb(248,243,0)" stroke-width="1" opacity="1" d="M 148.5 80 L 147.5 82 L 148.5 80 Z " /><path fill="rgb(248,243,0)" stroke="rgb(248,243,0)" stroke-width="1" opacity="1" d="M 351.5 80 L 352.5 82 L 351.5 80 Z " /><path fill="rgb(248,243,0)" stroke="rgb(248,243,0)" stroke-width="1" opacity="1" d="M 145.5 82 L 144.5 84 L 142.5 85 L 143.5 83 L 145.5 82 Z " /><path fill="rgb(248,243,0)" stroke="rgb(248,243,0)" stroke-width="1" opacity="1" d="M 354.5 82 L 358 84.5 L 356.5 84 L 354.5 82 Z " /><path fill="rgb(248,243,0)" stroke="rgb(248,243,0)" stroke-width="1" opacity="1" d="M 140.5 85 L 139.5 87 L 140.5 85 Z " /><path fill="rgb(248,243,0)" stroke="rgb(248,243,0)" stroke-width="1" opacity="1" d="M 359.5 85 L 360.5 87 L 359.5 85 Z " /><path fill="rgb(248,243,0)" stroke="rgb(248,243,0)" stroke-width="1" opacity="1" d="M 137.5 87 L 135.5 90 L 132.5 92 L 134.5 89 L 137.5 87 Z " /><path fill="rgb(248,243,0)" stroke="rgb(248,243,0)" stroke-width="1" opacity="1" d="M 362.5 87 L 368 91.5 L 365.5 90 L 362.5 87 Z " /><path fill="rgb(248,243,0)" stroke="rgb(248,243,0)" stroke-width="1" opacity="1" d="M 130.5 92 L 127.5 96 L 130.5 92 Z " /><path fill="rgb(248,243,0)" stroke="rgb(248,243,0)" stroke-width="1" opacity="1" d="M 369.5 92 L 372.5 96 L 369.5 92 Z " /><path fill="rgb(248,243,0)" stroke="rgb(248,243,0)" stroke-width="1" opacity="1" d="M 125.5 96 L 121.5 101 L 125.5 96 Z " /><path fill="rgb(248,243,0)" stroke="rgb(248,243,0)" stroke-width="1" opacity="1" d="M 374.5 96 L 378.5 101 L 374.5 96 Z " /><path fill="rgb(248,243,0)" stroke="rgb(248,243,0)" stroke-width="1" opacity="1" d="M 119.5 101 L 102.5 119 L 119.5 101 Z " /><path fill="rgb(248,243,0)" stroke="rgb(248,243,0)" stroke-width="1" opacity="1" d="M 380.5 101 L 397.5 119 L 380.5 101 Z " /><path fill="rgb(248,243,0)" stroke="rgb(248,243,0)" stroke-width="1" opacity="1" d="M 101.5 120 L 96.5 126 L 101.5 120 Z " /><path fill="rgb(248,243,0)" stroke="rgb(248,243,0)" stroke-width="1" opacity="1" d="M 398.5 120 L 403.5 126 L 398.5 120 Z " /><path fill="rgb(248,243,0)" stroke="rgb(248,243,0)" stroke-width="1" opacity="1" d="M 95.5 127 L 93.5 130 L 95.5 127 Z " /><path fill="rgb(248,243,0)" stroke="rgb(248,243,0)" stroke-width="1" opacity="1" d="M 404.5 127 L 406.5 130 L 404.5 127 Z " /><path fill="rgb(248,243,0)" stroke="rgb(248,243,0)" stroke-width="1" opacity="1" d="M 92.5 131 L 90.5 134 L 92.5 131 Z " /><path fill="rgb(248,243,0)" stroke="rgb(248,243,0)" stroke-width="1" opacity="1" d="M 407.5 131 L 409.5 134 L 407.5 131 Z " /><path fill="rgb(248,243,0)" stroke="rgb(248,243,0)" stroke-width="1" opacity="1" d="M 89.5 135 L 88.5 137 L 89.5 135 Z " /><path fill="rgb(248,243,0)" stroke="rgb(248,243,0)" stroke-width="1" opacity="1" d="M 410.5 135 L 411.5 137 L 410.5 135 Z " /><path fill="rgb(248,243,0)" stroke="rgb(248,243,0)" stroke-width="1" opacity="1" d="M 87.5 138 L 86 140.5 L 84.5 143 L 85 141.5 L 87.5 138 Z " /><path fill="rgb(248,243,0)" stroke="rgb(248,243,0)" stroke-width="1" opacity="1" d="M 412.5 138 L 416 142.5 L 414 141.5 L 412.5 138 Z " /><path fill="rgb(248,243,0)" stroke="rgb(248,243,0)" stroke-width="1" opacity="1" d="M 83.5 144 L 82.5 146 L 83.5 144 Z " /><path fill="rgb(248,243,0)" stroke="rgb(248,243,0)" stroke-width="1" opacity="1" d="M 416.5 144 L 417.5 146 L 416.5 144 Z " /><path fill="rgb(248,243,0)" stroke="rgb(248,243,0)" stroke-width="1" opacity="1" d="M 81.5 147 L 81 148.5 L 79.5 151 L 80 149.5 L 81.5 147 Z " /><path fill="rgb(248,243,0)" stroke="rgb(248,243,0)" stroke-width="1" opacity="1" d="M 418.5 147 L 421 150.5 L 419 149.5 L 418.5 147 Z " /><path fill="rgb(248,243,0)" stroke="rgb(248,243,0)" stroke-width="1" opacity="1" d="M 78.5 152 L 422 152.5 L 78.5 153 L 78.5 152 Z " /><path fill="rgb(248,243,0)" stroke="rgb(248,243,0)" stroke-width="1" opacity="1" d="M 227.5 198 L 228 445.5 L 227 445.5 L 227.5 198 Z " /><path fill="rgb(248,243,0)" stroke="rgb(248,243,0)" stroke-width="1" opacity="1" d="M 272.5 198 L 273 445.5 L 272 445.5 L 272.5 198 Z " /><path fill="rgb(248,243,0)" stroke="rgb(248,243,0)" stroke-width="1" opacity="1" d="M 57.5 205 L 58 207.5 L 57 207.5 L 57.5 205 Z " /><path fill="rgb(248,243,0)" stroke="rgb(248,243,0)" stroke-width="1" opacity="1" d="M 442.5 205 L 443 207.5 L 442 207.5 L 442.5 205 Z " /><path fill="rgb(248,243,0)" stroke="rgb(248,243,0)" stroke-width="1" opacity="1" d="M 56.5 209 L 57 211.5 L 56 211.5 L 56.5 209 Z " /><path fill="rgb(248,243,0)" stroke="rgb(248,243,0)" stroke-width="1" opacity="1" d="M 55.5 215 L 56 217.5 L 55 217.5 L 55.5 215 Z " /><path fill="rgb(248,243,0)" stroke="rgb(248,243,0)" stroke-width="1" opacity="1" d="M 444.5 215 L 445 217.5 L 444 217.5 L 444.5 215 Z " /><path fill="rgb(248,243,0)" stroke="rgb(248,243,0)" stroke-width="1" opacity="1" d="M 54.5 220 L 55 224.5 L 54 224.5 L 54.5 220 Z " /><path fill="rgb(248,243,0)" stroke="rgb(248,243,0)" stroke-width="1" opacity="1" d="M 445.5 221 L 446 224.5 L 445 224.5 L 445.5 221 Z " /><path fill="rgb(248,243,0)" stroke="rgb(248,243,0)" stroke-width="1" opacity="1" d="M 53.5 228 L 54 232.5 L 53 232.5 L 53.5 228 Z " /><path fill="rgb(248,243,0)" stroke="rgb(248,243,0)" stroke-width="1" opacity="1" d="M 446.5 228 L 447 233.5 L 446 233.5 L 446.5 228 Z " /><path fill="rgb(248,243,0)" stroke="rgb(248,243,0)" stroke-width="1" opacity="1" d="M 52.5 247 L 53 252.5 L 52 252.5 L 52.5 247 Z " /><path fill="rgb(248,243,0)" stroke="rgb(248,243,0)" stroke-width="1" opacity="1" d="M 447.5 248 L 448 251.5 L 447 251.5 L 447.5 248 Z " /><path fill="rgb(248,243,0)" stroke="rgb(248,243,0)" stroke-width="1" opacity="1" d="M 53.5 266 L 54 271.5 L 53 271.5 L 53.5 266 Z " /><path fill="rgb(248,243,0)" stroke="rgb(248,243,0)" stroke-width="1" opacity="1" d="M 446.5 266 L 447 271.5 L 446 271.5 L 446.5 266 Z " /><path fill="rgb(248,243,0)" stroke="rgb(248,243,0)" stroke-width="1" opacity="1" d="M 445.5 275 L 446 279.5 L 445 279.5 L 445.5 275 Z " /><path fill="rgb(248,243,0)" stroke="rgb(248,243,0)" stroke-width="1" opacity="1" d="M 54.5 276 L 55 279.5 L 54 279.5 L 54.5 276 Z " /><path fill="rgb(248,243,0)" stroke="rgb(248,243,0)" stroke-width="1" opacity="1" d="M 55.5 282 L 56 284.5 L 55 284.5 L 55.5 282 Z " /><path fill="rgb(248,243,0)" stroke="rgb(248,243,0)" stroke-width="1" opacity="1" d="M 444.5 282 L 445 284.5 L 444 284.5 L 444.5 282 Z " /><path fill="rgb(248,243,0)" stroke="rgb(248,243,0)" stroke-width="1" opacity="1" d="M 56.5 288 L 57 290.5 L 56 290.5 L 56.5 288 Z " /><path fill="rgb(248,243,0)" stroke="rgb(248,243,0)" stroke-width="1" opacity="1" d="M 443.5 288 L 444 290.5 L 443 290.5 L 443.5 288 Z " /><path fill="rgb(248,243,0)" stroke="rgb(248,243,0)" stroke-width="1" opacity="1" d="M 57.5 292 L 58 294.5 L 57 294.5 L 57.5 292 Z " /><path fill="rgb(248,243,0)" stroke="rgb(248,243,0)" stroke-width="1" opacity="1" d="M 442.5 292 L 443 294.5 L 442 294.5 L 442.5 292 Z " /><path fill="rgb(248,243,0)" stroke="rgb(248,243,0)" stroke-width="1" opacity="1" d="M 440.5 300 L 441 302.5 L 440 302.5 L 440.5 300 Z " /><path fill="rgb(248,243,0)" stroke="rgb(248,243,0)" stroke-width="1" opacity="1" d="M 433.5 322 L 434 323.5 L 432.5 326 L 432 324.5 L 433.5 322 Z " /><path fill="rgb(248,243,0)" stroke="rgb(248,243,0)" stroke-width="1" opacity="1" d="M 69.5 329 L 71 332.5 L 70 332.5 L 69.5 329 Z " /><path fill="rgb(248,243,0)" stroke="rgb(248,243,0)" stroke-width="1" opacity="1" d="M 430.5 329 L 431 330.5 L 429.5 333 L 429 331.5 L 430.5 329 Z " /><path fill="rgb(248,243,0)" stroke="rgb(248,243,0)" stroke-width="1" opacity="1" d="M 76.5 344 L 79 347.5 L 77 346.5 L 76.5 344 Z " /><path fill="rgb(248,243,0)" stroke="rgb(248,243,0)" stroke-width="1" opacity="1" d="M 423.5 344 L 423 345.5 L 421.5 348 L 422 346.5 L 423.5 344 Z " /><path fill="rgb(248,243,0)" stroke="rgb(248,243,0)" stroke-width="1" opacity="1" d="M 80.5 351 L 85 357.5 L 83 356.5 L 80.5 351 Z " /><path fill="rgb(248,243,0)" stroke="rgb(248,243,0)" stroke-width="1" opacity="1" d="M 419.5 351 L 418.5 353 L 419.5 351 Z " /><path fill="rgb(248,243,0)" stroke="rgb(248,243,0)" stroke-width="1" opacity="1" d="M 417.5 354 L 417 355.5 L 412.5 362 L 414 359.5 L 417.5 354 Z " /><path fill="rgb(248,243,0)" stroke="rgb(248,243,0)" stroke-width="1" opacity="1" d="M 85.5 359 L 87.5 362 L 85.5 359 Z " /><path fill="rgb(248,243,0)" stroke="rgb(248,243,0)" stroke-width="1" opacity="1" d="M 88.5 363 L 89.5 365 L 88.5 363 Z " /><path fill="rgb(248,243,0)" stroke="rgb(248,243,0)" stroke-width="1" opacity="1" d="M 411.5 363 L 410.5 365 L 411.5 363 Z " /><path fill="rgb(248,243,0)" stroke="rgb(248,243,0)" stroke-width="1" opacity="1" d="M 90.5 366 L 92.5 369 L 90.5 366 Z " /><path fill="rgb(248,243,0)" stroke="rgb(248,243,0)" stroke-width="1" opacity="1" d="M 409.5 366 L 407.5 369 L 409.5 366 Z " /><path fill="rgb(248,243,0)" stroke="rgb(248,243,0)" stroke-width="1" opacity="1" d="M 93.5 370 L 95.5 373 L 93.5 370 Z " /><path fill="rgb(248,243,0)" stroke="rgb(248,243,0)" stroke-width="1" opacity="1" d="M 406.5 370 L 404 373.5 L 398.5 380 L 403 374.5 L 406.5 370 Z " /><path fill="rgb(248,243,0)" stroke="rgb(248,243,0)" stroke-width="1" opacity="1" d="M 96.5 374 L 101.5 380 L 96.5 374 Z " /><path fill="rgb(248,243,0)" stroke="rgb(248,243,0)" stroke-width="1" opacity="1" d="M 102.5 381 L 118.5 398 L 102.5 381 Z " /><path fill="rgb(248,243,0)" stroke="rgb(248,243,0)" stroke-width="1" opacity="1" d="M 397.5 381 L 381.5 398 L 397.5 381 Z " /><path fill="rgb(248,243,0)" stroke="rgb(248,243,0)" stroke-width="1" opacity="1" d="M 120.5 398 L 125.5 404 L 120.5 398 Z " /><path fill="rgb(248,243,0)" stroke="rgb(248,243,0)" stroke-width="1" opacity="1" d="M 379.5 398 L 374.5 404 L 370.5 407 L 373.5 403 L 379.5 398 Z " /><path fill="rgb(248,243,0)" stroke="rgb(248,243,0)" stroke-width="1" opacity="1" d="M 127.5 404 L 129.5 407 L 127.5 404 Z " /><path fill="rgb(248,243,0)" stroke="rgb(248,243,0)" stroke-width="1" opacity="1" d="M 131.5 407 L 133.5 410 L 131.5 407 Z " /><path fill="rgb(248,243,0)" stroke="rgb(248,243,0)" stroke-width="1" opacity="1" d="M 368.5 407 L 366.5 410 L 368.5 407 Z " /><path fill="rgb(248,243,0)" stroke="rgb(248,243,0)" stroke-width="1" opacity="1" d="M 135.5 410 L 137.5 413 L 135.5 410 Z " /><path fill="rgb(248,243,0)" stroke="rgb(248,243,0)" stroke-width="1" opacity="1" d="M 364.5 410 L 362.5 413 L 364.5 410 Z " /><path fill="rgb(248,243,0)" stroke="rgb(248,243,0)" stroke-width="1" opacity="1" d="M 139.5 413 L 140.5 415 L 139.5 413 Z " /><path fill="rgb(248,243,0)" stroke="rgb(248,243,0)" stroke-width="1" opacity="1" d="M 360.5 413 L 359.5 415 L 360.5 413 Z " /><path fill="rgb(248,243,0)" stroke="rgb(248,243,0)" stroke-width="1" opacity="1" d="M 142.5 415 L 149 419.5 L 147.5 419 Q 142.9 417.8 142.5 415 Z " /><path fill="rgb(248,243,0)" stroke="rgb(248,243,0)" stroke-width="1" opacity="1" d="M 357.5 415 L 356.5 417 L 351.5 420 L 352.5 418 L 357.5 415 Z " /><path fill="rgb(248,243,0)" stroke="rgb(248,243,0)" stroke-width="1" opacity="1" d="M 150.5 420 L 156 423.5 L 154.5 423 Q 150.5 422.5 150.5 420 Z " /><path fill="rgb(248,243,0)" stroke="rgb(248,243,0)" stroke-width="1" opacity="1" d="M 349.5 420 L 348.5 422 L 344.5 424 L 345.5 422 L 349.5 420 Z " /><path fill="rgb(248,243,0)" stroke="rgb(248,243,0)" stroke-width="1" opacity="1" d="M 169.5 430 L 173 431.5 L 171.5 432 L 169.5 430 Z " /><path fill="rgb(248,243,0)" stroke="rgb(248,243,0)" stroke-width="1" opacity="1" d="M 329.5 430 L 331 430.5 L 327.5 432 L 327.5 431 L 329.5 430 Z " /><path fill="rgb(248,243,0)" stroke="rgb(248,243,0)" stroke-width="1" opacity="1" d="M 179.5 434 L 183 435.5 L 181.5 436 L 179.5 434 Z " /><path fill="rgb(248,243,0)" stroke="rgb(248,243,0)" stroke-width="1" opacity="1" d="M 319.5 434 L 321 434.5 L 317.5 436 L 317.5 435 L 319.5 434 Z " /><path fill="rgb(248,243,0)" stroke="rgb(248,243,0)" stroke-width="1" opacity="1" d="M 193.5 439 L 196 439.5 L 193.5 440 L 193.5 439 Z " /><path fill="rgb(248,243,0)" stroke="rgb(248,243,0)" stroke-width="1" opacity="1" d="M 209.5 443 L 212 443.5 L 209.5 444 L 209.5 443 Z " /><path fill="rgb(248,243,0)" stroke="rgb(248,243,0)" stroke-width="1" opacity="1" d="M 288.5 443 L 291 443.5 L 288.5 444 L 288.5 443 Z " /><path fill="rgb(248,243,0)" stroke="rgb(248,243,0)" stroke-width="1" opacity="1" d="M 214.5 444 L 217 444.5 L 214.5 445 L 214.5 444 Z " /><path fill="rgb(248,243,0)" stroke="rgb(248,243,0)" stroke-width="1" opacity="1" d="M 283.5 444 L 286 444.5 L 283.5 445 L 283.5 444 Z " /><path fill="rgb(248,243,0)" stroke="rgb(248,243,0)" stroke-width="1" opacity="1" d="M 220.5 445 L 223 445.5 L 220.5 446 L 220.5 445 Z " /><path fill="rgb(248,243,0)" stroke="rgb(248,243,0)" stroke-width="1" opacity="1" d="M 277.5 445 L 280 445.5 L 277.5 446 L 277.5 445 Z " /><path fill="rgb(249,244,0)" stroke="rgb(249,244,0)" stroke-width="1" opacity="1" d="M 233.5 53 L 266.5 53 L 267.5 54 L 281.5 55 L 300.5 59 L 324.5 67 Q 368.8 85.7 398 119.5 Q 410.9 134.1 421 151.5 L 79.5 152 L 81 149.5 Q 96.6 121.1 120.5 101 Q 144.1 80.1 175.5 67 L 207.5 57 L 224.5 55 L 225.5 54 L 232.5 54 L 233.5 53 Z " /><path fill="rgb(249,244,0)" stroke="rgb(249,244,0)" stroke-width="1" opacity="1" d="M 60.5 198 L 227 198 L 227 446 L 207.5 443 L 192.5 439 Q 173 433 156.5 424 Q 124.9 406.6 102 380.5 Q 77.7 353.8 64 316.5 L 58 296.5 L 54 275.5 L 54 266.5 L 53 265.5 L 53 233.5 L 54 232.5 L 56 212.5 L 59 199.5 L 60.5 198 Z " /><path fill="rgb(249,244,0)" stroke="rgb(249,244,0)" stroke-width="1" opacity="1" d="M 273 198 L 439.5 198 L 441 199.5 L 445 218.5 L 446 233.5 L 447 234.5 L 447 265.5 L 446 266.5 L 444 287.5 L 439 307.5 L 424 343.5 Q 406.5 375 380.5 398 Q 359.2 417.2 331.5 430 L 300.5 441 L 273 446 L 273 198 Z " /></svg>